<?xml version="1.0" standalone="no"?>
<!DOCTYPE svg PUBLIC "-//W3C//DTD SVG 20010904//EN"
 "http://www.w3.org/TR/2001/REC-SVG-20010904/DTD/svg10.dtd">
<svg version="1.0" xmlns="http://www.w3.org/2000/svg"
 width="48.000000pt" height="48.000000pt" viewBox="0 0 48.000000 48.000000"
 preserveAspectRatio="xMidYMid meet">

<g transform="translate(0.000000,48.000000) scale(0.100000,-0.100000)"
fill="#000000" stroke="none">
<path d="M140 343 c-1 -4 -32 -42 -70 -83 -66 -71 -83 -100 -59 -100 6 0 22
13 36 30 18 22 33 30 58 30 28 0 33 -4 39 -30 3 -16 10 -30 16 -30 15 0 21 39
18 115 -2 57 -6 70 -20 73 -10 2 -18 0 -18 -5z m0 -73 c0 -11 -7 -20 -15 -20
-18 0 -19 12 -3 28 16 16 18 15 18 -8z"/>
<path d="M245 338 c-12 -36 -35 -139 -35 -157 0 -34 16 -25 72 44 l53 64 3
-64 c2 -36 7 -65 12 -65 8 0 117 152 127 178 3 6 -1 12 -9 12 -8 0 -32 -26
-54 -57 l-39 -57 -3 57 c-2 36 -7 57 -15 57 -7 -1 -32 -26 -56 -56 -24 -30
-45 -53 -47 -51 -2 2 1 19 6 38 6 18 10 42 10 51 0 21 -18 24 -25 6z"/>
</g>
</svg>
