<svg width="85" height="85" xmlns="http://www.w3.org/2000/svg">

 <g>
  <title>background</title>
  <rect fill="none" id="canvas_background" height="87" width="87" y="-1" x="-1"/>
 </g>
 <g>
  <title>Layer 1</title>
  <path id="svg_1" fill="#78B9EB" d="m58.21,21.1401l-26.21,-15.27999l-25.79004,15.20999l26.00004,15.29l26,-15.22z"/>
  <path id="svg_2" fill="#78B9EB" d="m31.7499,46.7501l-17.25,-9.37l-8.36001,5.48l26.00001,14.71l25.72,-14.86l-9.43,-5.14l-16.68,9.18z"/>
  <path id="svg_3" fill="#006DF0" d="m58.6299,41.69l-7.46,-4.3l7.46,-4.31c0.1889,-0.11 0.3455,-0.2677 0.4544,-0.4572c0.1089,-0.1895 0.1662,-0.4042 0.1662,-0.6228c0,-0.2185 -0.0573,-0.4333 -0.1662,-0.6228c-0.1089,-0.1895 -0.2655,-0.3471 -0.4544,-0.4572l-7.45,-4.31l7.41,-4.28c0.2096,-0.1083 0.3833,-0.275 0.5,-0.48c0.0828,-0.1418 0.1368,-0.2985 0.159,-0.4612c0.0222,-0.1627 0.0121,-0.3282 -0.0297,-0.487c-0.0418,-0.1588 -0.1145,-0.3078 -0.2139,-0.4385c-0.0994,-0.1307 -0.2235,-0.2406 -0.3654,-0.3233l-26,-14.99998c-0.1907,-0.10779 -0.406,-0.16443 -0.625,-0.16443c-0.219,0 -0.4343,0.05664 -0.625,0.16443l-25.99999,14.99998c-0.19118,0.1094 -0.35008,0.2673 -0.46058,0.4579c-0.11051,0.1905 -0.16871,0.4069 -0.16871,0.6271c0,0.2203 0.0582,0.4366 0.16871,0.6272c0.1105,0.1905 0.2694,0.3484 0.46058,0.4578l7.44999,4.3l-7.45999,4.31c-0.18884,0.1101 -0.34552,0.2677 -0.45442,0.4572c-0.1089,0.1895 -0.16621,0.4043 -0.16621,0.6228c0,0.2186 0.05731,0.4333 0.16621,0.6228c0.1089,0.1895 0.26558,0.3472 0.45442,0.4572l7.45999,4.31l-7.44999,4.3c-0.19118,0.1094 -0.35008,0.2673 -0.46058,0.4579c-0.11051,0.1905 -0.16871,0.4069 -0.16871,0.6271c0,0.2203 0.0582,0.4366 0.16871,0.6272c0.1105,0.1905 0.2694,0.3484 0.46058,0.4578l25.99999,15c0.1879,0.0985 0.398,0.1467 0.61,0.14c0.2211,-0.0017 0.4381,-0.0603 0.63,-0.17l26,-15c0.1887,-0.1114 0.345,-0.27 0.4537,-0.4603c0.1086,-0.1903 0.1657,-0.4056 0.1657,-0.6247c0,-0.2191 -0.0571,-0.4344 -0.1657,-0.6247c-0.1087,-0.1902 -0.265,-0.3489 -0.4537,-0.4603l0,0.03zm-26.63,-34.02998l23.5,13.55998l-23.5,13.57l-23.49999,-13.57l23.49999,-13.55998zm-16.67,20.39998l16,9.26c0.188,0.1106 0.4019,0.1693 0.62,0.17c0.2211,-0.0017 0.4381,-0.0603 0.63,-0.17l16,-9.26l6.92,3.94l-23.5,13.57l-23.49999,-13.57l6.82999,-3.94zm16.67,28.28l-23.49999,-13.56l6.82999,-4l16,9.26c0.1878,0.1108 0.4019,0.1693 0.62,0.1693c0.2181,0 0.4322,-0.0585 0.62,-0.1693l16.05,-9.26l6.83,4l-23.45,13.56z"/>
 </g>
</svg>